<svg width="19" height="15" viewBox="0 0 19 15" fill="none" xmlns="http://www.w3.org/2000/svg">
<path d="M16.0343 0.697754H3.04804C2.4742 0.698368 1.92404 0.926597 1.51828 1.33236C1.11251 1.73813 0.884281 2.28829 0.883667 2.86213V12.138C0.884281 12.7119 1.11251 13.262 1.51828 13.6678C1.92404 14.0736 2.4742 14.3018 3.04804 14.3024H16.0343C16.6081 14.3018 17.1583 14.0736 17.5641 13.6678C17.9698 13.262 18.1981 12.7119 18.1987 12.138V2.86213C18.1981 2.28829 17.9698 1.73813 17.5641 1.33236C17.1583 0.926597 16.6081 0.698368 16.0343 0.697754ZM15.4862 4.27786L9.92071 8.60662C9.81218 8.69099 9.67864 8.73679 9.54117 8.73679C9.40371 8.73679 9.27016 8.69099 9.16163 8.60662L3.59609 4.27786C3.5307 4.22848 3.47578 4.1666 3.43451 4.09581C3.39325 4.02502 3.36646 3.94673 3.35571 3.8655C3.34496 3.78426 3.35047 3.70171 3.3719 3.62262C3.39334 3.54353 3.43027 3.46949 3.48057 3.4048C3.53087 3.34011 3.59352 3.28607 3.66488 3.2458C3.73625 3.20553 3.8149 3.17985 3.89628 3.17025C3.97765 3.16064 4.06013 3.16731 4.13891 3.18985C4.21768 3.2124 4.2912 3.25037 4.35517 3.30158L9.54117 7.33505L14.7272 3.30158C14.8568 3.20365 15.0199 3.1607 15.181 3.18201C15.3421 3.20333 15.4883 3.2872 15.588 3.41549C15.6878 3.54377 15.733 3.70616 15.714 3.86755C15.6949 4.02893 15.6131 4.17632 15.4862 4.27786Z" fill="#D5FF5F"/>
</svg>
