<svg width="91" height="60" viewBox="0 0 91 60" fill="none" xmlns="http://www.w3.org/2000/svg">
<path d="M79.7467 59.1731C79.7229 59.0702 79.6102 59.1262 79.5361 59.1276C79.1533 59.1325 78.7698 59.136 78.3877 59.1535C78.1666 59.164 78.1155 59.0702 78.1897 58.8827C78.3254 58.5391 78.4738 58.2011 78.599 57.854C78.6305 57.7679 78.7726 57.6062 78.6046 57.5741C78.4584 57.5454 78.2246 57.4292 78.1204 57.6692C77.909 58.1563 77.6949 58.644 77.5172 59.1437C77.4171 59.4243 77.5808 59.6125 77.8852 59.6251C78.1057 59.6342 78.3268 59.6272 78.5472 59.6272V59.6251C78.7334 59.6251 78.9216 59.6063 79.1043 59.63C79.3457 59.6615 79.5046 59.5405 79.648 59.3851C79.7005 59.3284 79.7614 59.234 79.7467 59.1731ZM62.5801 57.5622C61.9748 57.5531 61.3695 57.5594 60.7641 57.5587C60.3296 57.558 60.2988 57.586 60.2456 58.0751C60.445 58.0751 60.6438 58.094 60.8376 58.0709C61.1679 58.0317 61.1469 58.1801 61.0455 58.4026C60.8691 58.791 60.6879 59.178 60.5633 59.5985C60.9902 59.7091 61.2218 59.5804 61.324 59.1738C61.3968 58.8848 61.5521 58.6167 61.6452 58.3312C61.7187 58.108 61.8264 58.0198 62.0706 58.0702C62.2379 58.1052 62.4198 58.0891 62.5927 58.0723C62.8166 58.0499 62.8572 57.8687 62.8621 57.6902C62.8677 57.4572 62.6788 57.5636 62.5801 57.5622ZM83.268 57.5524C82.9223 57.509 82.8475 57.7378 82.7453 57.9848C82.1841 59.3431 82.4948 59.136 81.056 59.1563C80.7502 59.1605 80.7243 59.038 80.8328 58.7917C80.9685 58.4845 81.0889 58.171 81.2002 57.8547C81.2337 57.7616 81.3562 57.5943 81.2058 57.5629C81.0602 57.5328 80.8279 57.4495 80.7285 57.6951C80.5298 58.1878 80.3163 58.6755 80.1379 59.1759C80.0434 59.4383 80.2107 59.623 80.4927 59.6237C80.7488 59.6244 81.0049 59.6237 81.261 59.6237V59.6265H82.0644C82.4115 59.6258 82.6802 59.4656 82.8251 59.164C83.0441 58.7056 83.2261 58.2298 83.422 57.7602C83.485 57.609 83.4269 57.572 83.268 57.5524ZM77.0553 59.4684C76.9972 58.9023 76.9391 58.3368 76.874 57.7714C76.8663 57.7 76.8985 57.5699 76.7922 57.5706C76.5074 57.5727 76.175 57.4439 75.9482 57.6573C75.3226 58.2452 74.7607 58.8939 74.1421 59.6314C74.4178 59.6314 74.5885 59.637 74.7586 59.6307C75.2344 59.6125 75.746 59.7483 76.1169 59.2864C76.1911 59.1941 76.2834 59.2557 76.3121 59.3746C76.4045 59.7525 76.7089 59.6111 76.9461 59.6314C77.0763 59.6419 77.063 59.5468 77.0553 59.4684ZM75.4871 59.2137C75.2694 59.2081 75.2694 59.1234 75.3807 58.9925C75.6403 58.686 75.909 58.3872 76.233 58.0198C76.2498 58.199 76.2582 58.2892 76.2666 58.3795C76.3464 59.241 76.3464 59.2361 75.4871 59.2137ZM53.1441 57.5636C52.5619 57.5475 51.9783 57.5622 51.396 57.5538C51.2631 57.5524 51.1763 57.5818 51.1245 57.7098C50.8698 58.341 50.6116 58.9701 50.3624 59.5811C50.8187 59.7616 51.0076 59.5671 51.1133 59.1591C51.1973 58.8379 51.3582 58.5363 51.4877 58.2277C51.5332 58.1199 51.5752 58.0338 51.7389 58.0485C52.0741 58.0779 52.4128 58.0632 52.7501 58.0772C52.8544 58.0821 53.0209 58.0121 53.0433 58.1724C53.065 58.3242 52.9769 58.4586 52.825 58.537C52.6347 58.6349 52.4352 58.5832 52.24 58.5853C51.9083 58.5888 51.7326 58.7756 51.5787 59.0632C51.9272 59.0632 52.2183 59.066 52.5094 59.0625C53.1294 59.0555 53.3883 58.875 53.6186 58.299C53.8208 57.7924 53.6913 57.579 53.1441 57.5636ZM70.1861 57.5664C69.993 57.5636 69.7222 57.4523 69.662 57.7483C69.5346 58.3795 69.1155 58.4635 68.5843 58.3823C68.55 58.3767 68.5143 58.3809 68.4793 58.3809C67.8726 58.3795 67.8628 58.376 68.063 57.8001C68.1301 57.6062 68.1001 57.5517 67.8992 57.551C67.7068 57.5503 67.557 57.5915 67.4814 57.7889C67.4108 57.9729 67.3198 58.15 67.2575 58.3361C67.156 58.6412 67.2505 58.7896 67.5668 58.7966C68.1106 58.8085 68.655 58.8001 69.2344 58.8001C69.1238 59.0842 68.9307 59.1598 68.6893 59.1563C68.3513 59.1514 68.0105 59.1696 67.676 59.1346C67.2589 59.0905 67.0189 59.3018 66.7977 59.6286C67.4821 59.6286 68.1336 59.6293 68.7859 59.6279C69.1211 59.6272 69.4283 59.5111 69.5962 59.2284C69.8754 58.7609 70.0693 58.248 70.2351 57.7273C70.2554 57.665 70.2932 57.5678 70.1861 57.5664ZM47.1728 57.5629C46.5906 57.5545 46.0076 57.5636 45.4254 57.5531C45.2931 57.5503 45.212 57.5671 45.1581 57.7028C44.9069 58.3354 44.6465 58.9652 44.3883 59.5985C44.7697 59.7063 45.002 59.6293 45.1147 59.2403C45.2106 58.9086 45.3743 58.5965 45.5073 58.2759C45.5577 58.1556 45.6066 58.0478 45.7739 58.0506C46.2148 58.0583 46.6563 58.0534 47.1049 58.0534C47.1056 58.2668 47.03 58.4096 46.9698 58.5573C46.7368 59.1325 46.7375 59.136 46.114 59.1276C45.7578 59.1227 45.5563 59.3263 45.3729 59.6314C45.7718 59.6314 46.1308 59.6405 46.4898 59.6286C46.8838 59.6161 47.1756 59.4299 47.3337 59.0604C47.4429 58.8043 47.5444 58.5454 47.6542 58.2899C47.86 57.8099 47.7067 57.5699 47.1728 57.5629ZM56.2673 57.565C55.8369 57.5482 55.4044 57.5468 54.9741 57.5643C54.6109 57.5783 54.2666 57.7035 54.0881 58.0345C53.8915 58.4005 53.7445 58.7959 53.6039 59.1885C53.5213 59.418 53.6794 59.6118 53.9244 59.6181C54.2036 59.6251 54.4828 59.6195 54.7627 59.6195V59.6314C54.9839 59.6314 55.2057 59.6223 55.4268 59.6328C55.9251 59.6566 56.2386 59.4138 56.4198 58.9687C56.5157 58.7322 56.6158 58.4985 56.7095 58.2612C56.8929 57.7959 56.7655 57.5845 56.2673 57.565ZM56.093 58.3053C55.9965 58.9666 55.7522 59.1535 54.9692 59.1535C54.9461 59.1535 54.9202 59.1605 54.8999 59.1521C54.6955 59.0716 54.3393 59.3277 54.2855 59.0016C54.2141 58.5678 54.6773 58.0646 55.0342 58.0688C55.3254 58.0723 55.6158 58.0821 55.9062 58.0723C56.0923 58.066 56.1161 58.15 56.093 58.3053ZM86.0434 57.5881C85.9462 57.5594 85.837 57.5615 85.7334 57.5608C85.2093 57.5587 84.6844 57.5776 84.1617 57.5524C83.921 57.5405 83.8076 57.6251 83.7285 57.8337C83.5396 58.3312 83.3366 58.8232 83.1477 59.3214C83.1008 59.4439 82.9552 59.6272 83.1813 59.6867C83.338 59.7273 83.5578 59.7917 83.6487 59.4922C83.7747 59.0751 83.9664 58.6776 84.1267 58.2703C84.1715 58.1556 84.2205 58.0597 84.366 58.0604C84.8181 58.0625 85.2701 58.0611 85.7292 58.0611C85.5893 58.9512 85.443 59.0954 84.6165 59.1437C84.3051 59.1619 84.1841 59.3977 83.9545 59.6265C84.3989 59.6265 84.7593 59.6335 85.1204 59.6251C85.5403 59.6146 86.035 59.2599 86.0819 58.9086C86.112 58.6832 86.1974 58.4936 86.3086 58.3067C86.5228 57.9477 86.4374 57.7063 86.0434 57.5881ZM59.3555 57.5629C58.7494 57.551 58.1434 57.5629 57.5367 57.5608C57.4128 57.5608 57.317 57.5748 57.2624 57.714C57.0091 58.3592 56.7228 58.9918 56.5129 59.6671C56.86 59.7483 57.0979 59.7252 57.2085 59.3291C57.3107 58.9638 57.4891 58.6195 57.6375 58.2675C57.6809 58.164 57.7116 58.0597 57.8754 58.0674C58.2589 58.0842 58.6445 58.0821 59.0287 58.0744C59.254 58.0695 59.2505 58.1612 59.1742 58.327C59.0685 58.558 58.8894 58.6083 58.6592 58.5804C58.2575 58.5307 57.9384 58.6447 57.7403 59.0646C57.8306 59.0646 57.8866 59.0639 57.9419 59.0646C58.2512 59.0681 58.6172 58.9268 58.5794 59.5104C58.5654 59.7336 58.9097 59.5839 59.086 59.6265C59.2547 59.6671 59.233 59.5272 59.2288 59.4264C59.2218 59.2368 59.2267 59.0513 59.3835 58.9135C59.5927 58.7301 59.6949 58.4866 59.7928 58.2354C59.9566 57.8127 59.8145 57.572 59.3555 57.5629ZM72.7096 58.0695C73.1057 58.066 73.5024 58.0534 73.8957 58.0828C74.3023 58.1136 74.5276 57.8925 74.767 57.5713C74.0252 57.5713 73.3296 57.5454 72.6375 57.5804C72.1938 57.6027 71.8964 57.875 71.7691 58.3165C71.6704 58.6594 71.7572 58.791 72.1225 58.7973C72.5297 58.8043 72.937 58.7994 73.345 58.8001C73.4598 58.8008 73.6144 58.7819 73.6375 58.9184C73.6662 59.087 73.4871 59.1003 73.3744 59.1367C73.289 59.1647 73.1903 59.1563 73.098 59.1563C72.6669 59.1542 72.2337 59.178 71.8062 59.1381C71.4367 59.1038 71.3058 59.2662 71.2834 59.6293C71.9706 59.6293 72.634 59.6377 73.2974 59.6272C73.7621 59.6195 74.0861 59.3788 74.2666 58.9554C74.4122 58.6153 74.2582 58.383 73.8852 58.3788C73.4899 58.3739 73.0938 58.3851 72.6977 58.3802C72.5829 58.3781 72.3968 58.4425 72.3919 58.255C72.387 58.0681 72.5738 58.0702 72.7096 58.0695ZM40.8229 48.7798C38.5157 48.7896 36.2077 48.7819 33.8998 48.7833C33.5625 48.7833 33.1532 48.6888 32.9103 48.8449C32.6885 48.9876 32.6472 49.411 32.5254 49.7105C32.5079 49.7532 32.4856 49.7945 32.4667 49.8372C32.3155 50.185 32.3183 50.1926 32.7144 50.1934C33.6227 50.1962 34.5303 50.194 35.4961 50.194C34.7991 51.9239 34.1217 53.6062 33.4142 55.3655C33.741 55.3655 34.0083 55.369 34.2749 55.3641C34.6241 55.3578 35.0349 55.4544 35.305 55.3025C35.5793 55.1486 35.5912 54.6951 35.7207 54.3739C35.7291 54.3522 35.7361 54.3298 35.7452 54.3081C36.2595 53.024 36.7781 51.7413 37.284 50.4544C37.3708 50.2325 37.5213 50.2024 37.7207 50.2024C38.5485 50.2052 39.3757 50.1933 40.2036 50.2045C40.4674 50.208 40.6213 50.1528 40.7109 49.8679C40.7921 49.6097 40.8733 49.341 41.0265 49.1045C41.1728 48.8798 41.1308 48.7784 40.8229 48.7798ZM84.4521 48.7805C84.303 48.7833 84.238 48.8274 84.1813 48.9736C83.921 49.6454 83.634 50.3067 83.3702 50.9764C83.2932 51.1731 83.1953 51.2787 82.9748 51.3431C82.704 51.4229 82.4738 51.2983 82.2233 51.3032C81.5011 51.3158 80.7782 51.306 80.0553 51.3046C79.6123 51.3039 79.1694 51.3151 78.7271 51.299C78.2953 51.2836 78.1764 51.1003 78.3289 50.7035C78.5416 50.1507 78.7705 49.6041 78.9846 49.0513C79.0217 48.9547 79.1526 48.8036 78.8999 48.7791C78.3646 48.7273 77.83 48.7224 77.296 48.7826C77.2169 48.7917 77.1351 48.8015 77.0987 48.8973C76.7775 49.7427 76.4353 50.5817 76.1379 51.4355C75.9699 51.9176 76.2015 52.3571 76.6732 52.588C76.9923 52.7441 77.3317 52.8078 77.6879 52.8071C79.2149 52.805 80.7418 52.8064 82.268 52.8127C82.3576 52.8127 82.4871 52.7406 82.5333 52.8966C82.6067 53.1451 82.196 53.7686 81.9216 53.8057C81.6795 53.8386 81.4346 53.8659 81.1911 53.8673C79.8391 53.8729 78.4864 53.8966 77.1358 53.8589C76.4626 53.84 75.8943 53.9351 75.4451 54.4964C75.2134 54.7854 74.8587 54.9673 74.6284 55.2752C74.7418 55.3648 74.8503 55.3529 74.9531 55.3536C77.1092 55.3585 79.2652 55.3697 81.4213 55.3578C81.8377 55.3557 82.2526 55.25 82.6438 55.0933C83.3247 54.8197 83.8923 54.4033 84.1785 53.7035C84.8426 52.0821 85.4885 50.453 86.1505 48.8071C85.5697 48.742 85.0112 48.77 84.4521 48.7805ZM74.5563 48.7938C73.2932 48.7791 72.0301 48.7707 70.767 48.77C69.613 48.7686 68.4591 48.777 67.3058 48.7903C67.2043 48.7917 67.0553 48.7035 67.0056 48.9106C66.8271 49.6489 66.466 50.3179 66.1917 51.0205C65.6676 52.3627 65.1168 53.6951 64.5696 55.0282C64.4709 55.2689 64.515 55.355 64.7858 55.3459C65.2505 55.3305 65.7159 55.3704 66.1826 55.3473C66.3576 55.3382 66.4094 55.2892 66.4709 55.136C67.0966 53.5838 67.7376 52.038 68.3639 50.4859C68.4451 50.285 68.5444 50.1962 68.7698 50.1975C70.063 50.2073 71.3569 50.199 72.6501 50.2073C73.268 50.2108 73.4521 50.4642 73.2302 51.0562C72.9531 51.7952 72.6438 52.523 72.3261 53.2465C72.1693 53.6034 71.8502 53.8421 71.478 53.868C70.8173 53.9127 70.1511 53.8855 69.487 53.8708C69.1994 53.8638 68.9636 53.9526 68.7579 54.1409C68.3527 54.5125 67.9496 54.8848 67.5381 55.264C67.6207 55.3627 67.6956 55.355 67.7628 55.3543C69.021 55.3529 70.2827 55.3991 71.5374 55.3298C72.648 55.2689 73.5927 54.8246 74.0763 53.7217C74.2722 53.2752 74.4493 52.8204 74.6312 52.3676C74.9216 51.6454 75.2274 50.9281 75.4927 50.1968C75.7152 49.5824 75.1826 48.8008 74.5563 48.7938ZM21.3386 48.777C19.2644 48.7882 17.1874 48.7231 15.1167 48.8127C14.1034 48.856 13.1846 49.3102 12.75 50.3564C12.2777 51.4943 11.8109 52.6349 11.363 53.7826C11.1321 54.3732 11.328 54.8897 11.8529 55.1458C12.1251 55.278 12.4162 55.3641 12.7262 55.3634C14.3798 55.362 16.0327 55.3627 17.6857 55.3627C17.8263 55.3627 17.9775 55.3774 18.0894 55.2815C18.5772 54.8589 19.0586 54.4292 19.5471 53.9981C19.4274 53.8736 19.3036 53.8959 19.1937 53.8952C17.4456 53.882 15.6975 53.8715 13.9495 53.8652C13.608 53.8638 13.4533 53.7504 13.4456 53.4579C13.4365 53.1101 13.6758 52.8015 13.96 52.8022C14.3211 52.8043 14.6821 52.819 15.0432 52.8176C16.2203 52.8141 17.3966 52.7959 18.5737 52.8071C18.8151 52.8099 19.0335 52.8127 19.2196 52.6475C19.6836 52.236 20.1594 51.8386 20.6325 51.3277H17.391C17.3211 51.3277 17.2497 51.3193 17.1818 51.3319C16.9761 51.3697 16.7752 51.3634 16.5646 51.3501C15.6905 51.2955 14.7801 51.1479 14.13 51.9785C14.1209 51.9897 14.0894 51.9834 14.0684 51.9855C14.221 50.7049 14.778 50.2017 16.0404 50.201C17.3805 50.2003 18.7206 50.1975 20.0608 50.1968C21.1958 50.1961 21.1895 50.1948 21.5772 49.1304C21.6731 48.8665 21.6451 48.7756 21.3386 48.777ZM31.4855 48.784C30.3442 48.7917 29.2021 48.7875 28.0601 48.7875V48.7854C26.9523 48.7854 25.8452 48.777 24.7382 48.7875C23.792 48.7966 22.4051 49.4026 22.0608 50.6636C22.0034 50.8756 21.897 51.0737 21.8228 51.2815C21.6164 51.8603 21.8599 52.3676 22.426 52.6181C22.8361 52.8001 23.2602 52.7945 23.692 52.8022C25.0419 52.8267 26.3939 52.7462 27.7431 52.8477C28.0909 52.8743 28.1783 53.0485 28.0321 53.3711C27.9523 53.5468 27.8319 53.6727 27.6423 53.7455C27.3526 53.8568 27.0559 53.8855 26.7508 53.8855C25.2357 53.8841 23.7207 53.8848 22.2056 53.8848C21.995 53.8841 21.7752 53.8701 21.6059 54.0184C21.1776 54.3914 20.7808 54.8008 20.2994 55.1101C20.2448 55.1451 20.193 55.2137 20.2175 55.2871C20.2448 55.3683 20.3246 55.3578 20.3959 55.3578C20.8032 55.3571 21.2112 55.3599 21.6185 55.3599C23.3323 55.3585 25.0454 55.3515 26.7585 55.3578C27.6031 55.3606 28.3743 55.1724 29.0594 54.6454C29.6311 54.2053 29.8466 53.5691 30.0993 52.9442C30.403 52.1927 30.0993 51.5943 29.312 51.4068C28.9572 51.3221 28.5961 51.3186 28.235 51.3186C26.953 51.3172 25.671 51.3277 24.389 51.3074C23.8578 51.299 23.7403 51.0233 24.03 50.574C24.0881 50.4838 24.1594 50.4173 24.2504 50.3592C24.4687 50.2185 24.7081 50.2017 24.9558 50.2017C26.925 50.201 28.8949 50.1961 30.8641 50.2017C31.1007 50.2024 31.2483 50.1577 31.3239 49.9022C31.4093 49.6139 31.5422 49.3382 31.6703 49.0646C31.769 48.8526 31.7249 48.7819 31.4855 48.784ZM11.6919 49.651C11.5422 49.1325 11.0432 48.7875 10.4008 48.784C9.26996 48.7777 8.13909 48.7819 7.00823 48.7819V48.7707C6.07611 48.7707 5.14329 48.7672 4.21116 48.7721C3.89696 48.7735 3.52257 48.6951 3.28884 48.8386C3.0922 48.9589 3.05861 49.3466 2.95224 49.6167C2.94804 49.6272 2.94174 49.637 2.93754 49.6482C2.21676 51.439 1.50227 53.2325 0.768887 55.0177C0.647124 55.3144 0.722001 55.3641 1.00402 55.3634C3.13698 55.3571 5.26995 55.3473 7.40291 55.3669C8.18598 55.3739 8.87947 55.0919 9.4687 54.6657C10.2966 54.0667 10.68 53.1738 10.6877 52.1381C10.6884 52.0555 10.6695 51.9876 10.7591 51.8987C11.2602 51.4019 11.4813 50.7469 11.7045 50.0989C11.7542 49.9554 11.7353 49.8008 11.6919 49.651ZM9.37563 51.0632C9.18318 51.2325 8.95435 51.3025 8.70103 51.3032C8.06002 51.306 7.41901 51.3214 6.7787 51.3067C6.47219 51.3004 6.21187 51.3613 5.98724 51.5768C5.58975 51.9568 5.18457 52.3298 4.78289 52.7049C4.80529 52.7378 4.82768 52.7707 4.85007 52.8029C5.7815 52.8029 6.71292 52.8029 7.64434 52.8036C7.76121 52.8036 7.87877 52.7945 7.99354 52.8092C8.22587 52.8386 8.51628 52.791 8.55617 53.1388C8.58626 53.4012 8.31824 53.7644 8.04462 53.8092C7.7934 53.8505 7.53447 53.8666 7.27905 53.868C6.02082 53.8743 4.7619 53.8673 3.50297 53.8764C3.22796 53.8785 3.15728 53.8393 3.28394 53.5482C3.72831 52.5251 4.14398 51.4894 4.56176 50.4544C4.63104 50.2836 4.71221 50.1947 4.91445 50.1968C6.26645 50.208 7.61775 50.2073 8.96975 50.2115C9.01663 50.2115 9.06492 50.2073 9.10901 50.2199C9.27486 50.2661 9.51908 50.1759 9.57227 50.4285C9.62125 50.6643 9.56947 50.8917 9.37563 51.0632ZM55.3582 49.6524C55.254 49.1773 54.7158 48.7854 54.0692 48.7819C51.7746 48.7679 49.48 48.7805 47.1854 48.7777C47.0237 48.7777 46.9195 48.8288 46.8579 48.9743C46.6682 49.4194 46.4695 49.8616 46.2903 50.3116C45.9831 51.0821 45.692 51.8589 45.3883 52.6307C45.0601 53.4628 44.7298 54.2934 44.3918 55.1213C44.3057 55.3319 44.3715 55.3676 44.5752 55.3662C45.6815 55.3585 46.7879 55.3627 47.895 55.3627V55.355C48.9202 55.355 49.9461 55.3886 50.9699 55.348C53.1574 55.2626 53.8831 54.2843 54.3519 52.5565C54.3792 52.4565 54.4233 52.3326 54.389 52.25C54.2932 52.0212 54.4002 51.8736 54.5444 51.7343C55.0195 51.2766 55.1707 50.658 55.3687 50.0653C55.41 49.9421 55.3876 49.7854 55.3582 49.6524ZM53.2197 50.5775C53.198 50.982 52.9657 51.2773 52.6116 51.285C51.8775 51.3018 51.1434 51.3235 50.4093 51.3144C50.0958 51.3109 49.8467 51.3942 49.6221 51.6083C49.2868 51.9288 48.9384 52.236 48.5969 52.5503C48.5402 52.6027 48.4436 52.6503 48.4842 52.7434C48.5241 52.8365 48.6277 52.7945 48.7025 52.7945C49.6815 52.8001 50.6612 52.8022 51.6403 52.805C51.8642 52.8057 52.1336 52.7889 52.1854 53.0625C52.2379 53.3389 52.1091 53.5873 51.8453 53.7329C51.6361 53.8484 51.4023 53.8771 51.1693 53.8778C49.8166 53.8799 48.4646 53.8757 47.1126 53.875C46.9481 53.875 46.797 53.8952 46.9041 53.6356C47.3449 52.5726 47.7788 51.5062 48.2008 50.4355C48.282 50.2304 48.4058 50.1933 48.6004 50.1961C49.2764 50.2045 49.9524 50.1996 50.6284 50.1996V50.2108C51.3162 50.2108 52.0041 50.1968 52.6913 50.2192C52.9125 50.2262 53.2428 50.15 53.2197 50.5775ZM81.4017 2.16524C81.275 1.2912 80.8167 0.720167 80.0357 0.375169C79.6403 0.200921 79.2225 0.0658614 78.7964 0.0378697C77.5962 -0.040507 76.3975 -0.00411781 75.2092 0.212118C73.352 0.550817 71.5472 1.07216 69.7705 1.70897C67.8516 2.39617 65.9832 3.19323 64.1861 4.15125C63.0301 4.76776 61.895 5.41507 60.8439 6.21703C60.2904 6.63971 59.7753 7.09667 59.156 7.59422C59.3457 7.59422 59.4254 7.60332 59.5024 7.59282C60.7984 7.41647 62.1035 7.37729 63.4094 7.36399C66.8355 7.329 70.2645 7.47456 73.6872 7.23663C75.4192 7.11626 77.1344 6.88463 78.7803 6.27022C79.6235 5.95531 80.3261 5.43816 80.851 4.75097C81.4178 4.00849 81.5382 3.10996 81.4017 2.16524ZM82.4836 23.9694C82.112 23.0099 81.338 22.4648 80.4955 22.0036C79.2078 21.2982 77.8006 20.9197 76.3779 20.6069C73.979 20.0799 71.5437 19.8252 69.098 19.6481C66.0308 19.4263 62.9671 19.5005 59.9111 19.7909C57.6151 20.0092 55.3324 20.3304 53.0643 20.7699C50.1602 21.3325 47.2868 22.0085 44.4492 22.8455C42.72 23.3549 41.0013 23.8966 39.3057 24.5075C38.0174 24.9715 36.7235 25.4144 35.4611 25.9547C34.664 26.2962 33.8299 26.5677 33.0314 26.9134C31.8473 27.4263 30.6605 27.9358 29.4834 28.4648C28.452 28.9288 27.4268 29.413 26.3953 29.8777C24.9285 30.5383 23.5037 31.2934 22.0748 32.0345C19.7738 33.2283 17.5009 34.4746 15.2609 35.7818C13.2322 36.9652 11.2315 38.1933 9.25316 39.4585C7.40501 40.6412 5.58555 41.8693 3.79129 43.1331C2.82418 43.814 1.86896 44.5124 0.908846 45.2024C1.25104 45.1891 1.50507 44.9764 1.79058 44.835C5.13629 43.1737 8.48269 41.5145 11.8487 39.8945C14.6332 38.5544 17.4316 37.2444 20.2434 35.9645C21.8816 35.2185 23.5359 34.5089 25.1881 33.7965C27.4799 32.8077 29.797 31.8798 32.1336 31.0037C33.5492 30.4732 34.9733 29.9638 36.4037 29.4753C37.5353 29.089 38.6836 28.7482 39.8243 28.3885C41.2071 27.9526 42.6038 27.5621 44.0083 27.2052C45.1441 26.9169 46.2861 26.6538 47.4324 26.4102C48.7032 26.1408 49.9754 25.8658 51.2589 25.6663C52.7403 25.4368 54.2246 25.2157 55.7172 25.0512C57.4415 24.8616 59.1651 24.6768 60.8957 24.5635C62.373 24.4669 63.8509 24.3927 65.3289 24.3206C67.3142 24.2241 69.296 24.2024 71.2372 24.7342C71.4374 24.7888 71.6361 24.8518 71.8271 24.9309C73.2652 25.5201 73.6592 26.546 72.9958 27.9561C72.3688 29.2878 71.345 30.3018 70.3114 31.3074C68.6732 32.9015 66.8719 34.2983 65.0245 35.6349C62.5997 37.3893 60.1042 39.0394 57.5395 40.5838C57.1357 40.8273 56.734 41.0737 56.3093 41.3319C56.4744 41.3816 56.5829 41.3298 56.6913 41.2913C58.5878 40.616 60.4583 39.8756 62.3072 39.0821C64.431 38.1709 66.536 37.215 68.5983 36.1709C69.8488 35.5383 71.077 34.8623 72.3191 34.2136C73.5255 33.5831 74.6914 32.8833 75.8342 32.1471C76.8223 31.511 77.7467 30.7853 78.6977 30.0967C80.0315 29.1296 81.2184 28.0309 82.0749 26.6223C82.5662 25.8147 82.8587 24.9407 82.4836 23.9694ZM90.2149 7.01899C88.3541 7.62991 86.4955 8.24923 84.6312 8.85175C82.133 9.65861 79.6109 10.385 77.0357 10.9035C74.2428 11.4662 71.4206 11.7678 68.5689 11.7062C66.648 11.6642 64.7278 11.5557 62.8068 11.5201C58.5297 11.4403 54.2554 11.4529 49.9978 11.9826C48.2071 12.2052 46.4345 12.5054 44.6857 12.9406C41.7522 13.6719 38.9705 14.7797 36.347 16.2926C34.6605 17.2653 33.0909 18.3962 31.6031 19.6425C30.0937 20.9078 28.699 22.2968 27.4324 23.8035C27.1874 24.0946 26.9355 24.3801 26.6857 24.6684C26.6416 24.7188 26.5982 24.7692 26.5548 24.8196C26.5261 24.8518 26.4981 24.8847 26.4701 24.9183C26.4226 24.9729 26.3757 25.0281 26.3295 25.0834L26.3064 25.1107C26.2595 25.1667 26.2126 25.2234 26.1657 25.2801C26.0979 25.3633 26.0307 25.4466 25.9642 25.5313C25.9257 25.5796 25.8879 25.6286 25.8508 25.6775C25.8116 25.7286 25.7731 25.7804 25.7347 25.8322C25.6997 25.8791 25.6654 25.9267 25.6311 25.975C25.5975 26.0218 25.5646 26.0687 25.5324 26.1163C25.4995 26.1639 25.4673 26.2115 25.4359 26.2598C25.4317 26.2661 25.4275 26.2724 25.4233 26.2787C25.396 26.3207 25.3687 26.3626 25.3428 26.4053C25.312 26.4543 25.2819 26.5033 25.2525 26.553C25.2399 26.5733 25.2273 26.5943 25.2147 26.6153C25.2028 26.637 25.1902 26.658 25.1783 26.6796C25.1811 26.6782 25.1832 26.6761 25.186 26.674C25.2105 26.6573 25.235 26.6405 25.2588 26.6223C25.3449 26.56 25.4261 26.4914 25.5051 26.42C25.5338 26.3941 25.5611 26.3682 25.5891 26.3416C25.5905 26.3402 25.5919 26.3388 25.594 26.3367C25.6269 26.3053 25.6598 26.2724 25.6927 26.2395C25.7578 26.1737 25.8214 26.1065 25.8844 26.0386C26.5534 25.3199 27.3295 24.7223 28.1098 24.138C30.0706 22.6705 32.1706 21.4284 34.3946 20.4032C37.27 19.0771 40.2504 18.0407 43.2889 17.1534C45.8642 16.4011 48.4793 15.8728 51.1497 15.6425C52.8411 15.497 54.5353 15.3822 56.2337 15.3381C58.5661 15.2779 60.8985 15.3122 63.2274 15.3766C66.2253 15.4599 69.2148 15.4746 72.1952 15.0897C75.0553 14.7209 77.7985 13.9322 80.4479 12.8035C83.0742 11.6852 85.5473 10.2821 87.949 8.74958C88.8356 8.18415 89.6977 7.58023 90.5928 6.97841C90.4318 6.93012 90.324 6.9826 90.2149 7.01899ZM25.1776 26.6796C25.1349 26.709 25.0916 26.737 25.0468 26.7629C24.9782 26.8035 24.897 26.8413 24.9404 26.9484C24.8991 26.94 24.8844 26.9652 24.8872 26.9987C24.8872 27.0078 24.9243 27.026 24.932 27.0211C24.9404 27.0162 24.9467 27.0099 24.9516 27.0036C24.9544 27.0008 24.9558 26.9981 24.9572 26.9946C24.9614 26.9862 24.9607 26.9771 24.953 26.9687C24.9509 26.9659 24.9481 26.9631 24.9446 26.9603C24.9425 26.9582 24.9404 26.9568 24.9383 26.9554H24.9376C24.9376 26.9554 24.9348 26.9533 24.9334 26.9519C24.9369 26.954 24.9404 26.9554 24.9439 26.9575C24.9558 26.9617 24.9677 26.9638 24.9789 26.9638C24.9831 26.9638 24.9873 26.9631 24.9915 26.9624C24.995 26.9624 24.9985 26.961 25.0027 26.9596C25.0062 26.9582 25.0104 26.9568 25.0139 26.9547C25.0272 26.9477 25.0391 26.9351 25.0482 26.9176C25.0902 26.8371 25.1335 26.758 25.1783 26.6796H25.1776ZM65.4332 57.5622C64.9678 57.551 64.5017 57.5517 64.0364 57.5629C63.6375 57.5727 63.2638 57.6692 63.0707 58.0653C62.9034 58.4082 62.755 58.7623 62.6207 59.1199C62.5157 59.3984 62.6711 59.6118 62.9734 59.6181C63.4737 59.6286 63.9741 59.623 64.4744 59.63C64.7033 59.6335 64.8509 59.4705 65.0329 59.3767C65.107 59.3389 65.1105 59.255 65.1001 59.1934C65.0812 59.0856 64.9874 59.1493 64.9293 59.1486C64.5101 59.1486 64.091 59.1563 63.6718 59.1549C63.5171 59.1542 63.2778 59.2095 63.2785 58.989C63.2785 58.7553 63.5255 58.8022 63.6914 58.8008C64.0287 58.7987 64.3681 58.7861 64.7033 58.8148C65.0392 58.8435 65.2365 58.6881 65.4038 58.4159H63.5437C63.5318 58.4012 63.5178 58.3893 63.5024 58.3788C63.6347 58.0135 63.9468 58.0737 64.2316 58.073C64.6277 58.0716 65.0231 58.0751 65.4185 58.0716C65.6795 58.0688 65.7663 57.8407 65.7704 57.6692C65.776 57.4726 65.5521 57.565 65.4332 57.5622ZM50.7599 57.6104C50.7095 57.5048 50.5927 57.5615 50.5066 57.5608C50.0062 57.5566 49.5045 57.5517 49.0041 57.5629C48.5619 57.5734 48.2197 57.7567 48.0461 58.1878C47.9335 58.467 47.8159 58.7441 47.7123 59.0268C47.5612 59.4397 47.6829 59.6167 48.1175 59.6244C48.5486 59.6321 48.9803 59.6147 49.41 59.6412C49.65 59.6566 49.8075 59.5559 49.9573 59.4019C50.0139 59.3438 50.0909 59.2871 50.0615 59.1976C50.0244 59.0814 49.923 59.1514 49.853 59.1514C49.4331 59.1486 49.0139 59.1514 48.5948 59.1549C48.4611 59.1563 48.312 59.1584 48.3064 58.9855C48.3015 58.8106 48.4513 58.8036 48.585 58.8036C48.9922 58.8043 49.4002 58.8036 49.8082 58.8057C50.1063 58.8078 50.2722 58.6342 50.4282 58.3844C49.9286 58.3844 49.4744 58.3935 49.0209 58.3802C48.8334 58.3753 48.6822 58.4173 48.5591 58.5566C48.5479 58.5405 48.5346 58.5258 48.5206 58.5125C48.5773 58.1997 48.7095 58.0233 49.0818 58.0611C49.4968 58.1038 49.9188 58.0744 50.3379 58.0758C50.4709 58.0765 50.5934 58.0478 50.6752 57.931C50.7431 57.8351 50.8166 57.728 50.7599 57.6104Z" fill="black"/>
<path d="M0.908903 45.2027C1.86972 44.512 2.82493 43.8143 3.79135 43.1334C5.58561 41.8696 7.40437 40.6422 9.25322 39.4588C11.2308 38.1929 13.2322 36.9655 15.2609 35.7814C17.5003 34.4749 19.7732 33.2286 22.0748 32.0347C23.5038 31.2937 24.9286 30.5386 26.3953 29.878C27.4268 29.4133 28.452 28.9291 29.4835 28.4651C30.6606 27.9361 31.8474 27.4266 33.0314 26.9137C33.8299 26.5673 34.6641 26.2965 35.4611 25.955C36.7235 25.4147 38.0182 24.9717 39.3058 24.5078C41.0014 23.8969 42.7201 23.3559 44.4493 22.8458C47.2869 22.0088 50.1603 21.3328 53.0644 20.7702C55.3324 20.3307 57.6151 20.0095 59.9104 19.7919C62.9664 19.5015 66.0308 19.4273 69.0973 19.6491C71.5431 19.8262 73.9791 20.0809 76.3772 20.6078C77.7999 20.9207 79.2072 21.2992 80.4941 22.0039C81.3367 22.4658 82.1113 23.0102 82.4822 23.9703C82.8573 24.941 82.5648 25.815 82.0736 26.6226C81.217 28.0319 80.0302 29.1299 78.6964 30.097C77.7453 30.7856 76.8209 31.5113 75.8328 32.1474C74.6893 32.8836 73.5242 33.5834 72.3178 34.2139C71.0756 34.8626 69.8475 35.5386 68.597 36.1719C66.5347 37.216 64.4297 38.1712 62.3058 39.083C60.457 39.8766 58.5864 40.617 56.69 41.2923C56.5815 41.3308 56.4731 41.3826 56.3079 41.3329C56.7327 41.0747 57.1344 40.8283 57.5382 40.5855C60.1022 39.0404 62.5984 37.391 65.0231 35.6366C66.8706 34.3 68.6718 32.9032 70.3101 31.3091C71.3436 30.3028 72.3674 29.2895 72.9945 27.9578C73.6579 26.5477 73.2639 25.5211 71.8265 24.9326C71.6348 24.8542 71.436 24.7905 71.2366 24.7359C69.2954 24.2041 67.3135 24.2258 65.3282 24.3223C63.8503 24.3944 62.3716 24.4686 60.8951 24.5652C59.1645 24.6785 57.4402 24.8633 55.7159 25.0529C54.2232 25.2174 52.7397 25.4385 51.2575 25.668C49.9741 25.8668 48.7019 26.1418 47.4311 26.4119C46.2848 26.6554 45.1427 26.9186 44.007 27.2069C42.6025 27.5638 41.2057 27.9536 39.8229 28.3902C38.6816 28.7499 37.5339 29.0907 36.4023 29.477C34.972 29.9655 33.5479 30.4749 32.1329 31.0061C29.7963 31.8822 27.4793 32.8101 25.1875 33.7982C23.5346 34.5113 21.8803 35.2209 20.2428 35.9662C17.431 37.2461 14.6325 38.5561 11.848 39.8962C8.48205 41.5162 5.13565 43.1754 1.78994 44.8367C1.50443 44.9781 1.2504 45.1908 0.908203 45.2048L0.908903 45.2027Z" fill="#1A1A1A"/>
<path d="M24.9314 26.9526C24.9804 26.9743 25.0238 26.9652 25.0483 26.9177C25.6599 25.7399 26.592 24.8036 27.4325 23.8036C28.6991 22.2969 30.0938 20.9071 31.6032 19.6426C33.091 18.3963 34.6606 17.2654 36.3471 16.2927C38.9706 14.7798 41.7523 13.672 44.6858 12.9407C46.4346 12.5047 48.2072 12.2045 49.9979 11.982C54.2555 11.4523 58.5298 11.4397 62.8069 11.5194C64.7279 11.5551 66.6481 11.6636 68.569 11.7056C71.4207 11.7679 74.2429 11.4655 77.0358 10.9036C79.6117 10.3851 82.1338 9.65868 84.632 8.85182C86.4963 8.2493 88.3542 7.62999 90.2157 7.01907C90.3248 6.98338 90.4326 6.93019 90.5936 6.97848C89.6978 7.5803 88.8364 8.18422 87.9497 8.74965C85.5481 10.2822 83.075 11.6853 80.4487 12.8035C77.7993 13.9316 75.0561 14.7203 72.1953 15.0898C69.2149 15.4747 66.2254 15.46 63.2282 15.3767C60.8986 15.3123 58.5662 15.278 56.2345 15.3382C54.5354 15.3816 52.8412 15.497 51.1505 15.6426C48.4801 15.8728 45.865 16.4005 43.2897 17.1535C40.2512 18.0408 37.2708 19.0772 34.3954 20.4033C32.1714 21.4292 30.0714 22.6706 28.1113 24.1381C27.3303 24.7224 26.5549 25.32 25.8852 26.0387C25.6326 26.3102 25.3723 26.5734 25.0483 26.763C24.9797 26.8036 24.8978 26.8414 24.9419 26.9484L24.9328 26.9526H24.9314Z" fill="#1A1A1A"/>
<path d="M59.156 7.59414C59.776 7.09658 60.2904 6.63962 60.8439 6.21695C61.895 5.41429 63.0301 4.76768 64.1861 4.15116C65.9832 3.19245 67.8516 2.39608 69.7704 1.70889C71.5472 1.07208 73.352 0.550733 75.2092 0.212733C76.3975 -0.00350244 77.5962 -0.0405914 78.7964 0.0384851C79.2225 0.0664767 79.641 0.201537 80.0357 0.375785C80.8167 0.720082 81.275 1.29111 81.4017 2.16585C81.5381 3.11057 81.4178 4.0091 80.851 4.75228C80.3268 5.43948 79.6235 5.95662 78.7803 6.27153C77.1344 6.88595 75.4192 7.11688 73.6879 7.23724C70.2652 7.47517 66.8362 7.33032 63.4093 7.3646C62.1035 7.3779 60.7991 7.41709 59.5024 7.59414C59.4254 7.60463 59.3456 7.59554 59.156 7.59554V7.59414Z" fill="#1A1A1A"/>
<path d="M55.3581 49.6521C55.2538 49.1769 54.7157 48.785 54.0691 48.7815C51.7745 48.7675 49.4798 48.7801 47.1852 48.7773C47.0236 48.7773 46.9193 48.8284 46.8577 48.974C46.6681 49.419 46.4693 49.8613 46.2902 50.3113C45.983 51.0817 45.6919 51.8585 45.3882 52.6304C45.06 53.4624 44.7297 54.2931 44.3917 55.1209C44.3056 55.3316 44.3714 55.3673 44.575 55.3659C45.6814 55.3582 46.7877 55.3624 47.8948 55.3624V55.3547C48.92 55.3547 49.9459 55.3883 50.9697 55.3477C53.1572 55.2623 53.8829 54.284 54.3518 52.5562C54.3791 52.4561 54.4232 52.3323 54.3889 52.2497C54.293 52.0209 54.4001 51.8732 54.5442 51.7339C55.0194 51.2763 55.1706 50.6577 55.3686 50.0649C55.4099 49.9418 55.3875 49.785 55.3581 49.6521ZM53.2195 50.5772C53.1978 50.9817 52.9655 51.277 52.6114 51.2847C51.8773 51.3015 51.1432 51.3232 50.4092 51.3141C50.0957 51.3106 49.8465 51.3938 49.6219 51.608C49.2867 51.9285 48.9382 52.2357 48.5967 52.5499C48.54 52.6024 48.4435 52.65 48.484 52.743C48.5239 52.8361 48.6275 52.7941 48.7024 52.7941C49.6814 52.7997 50.6611 52.8018 51.6401 52.8046C51.864 52.8053 52.1334 52.7885 52.1852 53.0621C52.2377 53.3386 52.109 53.587 51.8451 53.7325C51.6359 53.848 51.4022 53.8767 51.1691 53.8774C49.8164 53.8795 48.4644 53.8753 47.1124 53.8746C46.948 53.8746 46.7968 53.8949 46.9039 53.6353C47.3448 52.5723 47.7786 51.5058 48.2006 50.4351C48.2818 50.2301 48.4057 50.193 48.6002 50.1958C49.2762 50.2042 49.9522 50.1993 50.6282 50.1993V50.2105C51.3161 50.2105 52.004 50.1965 52.6912 50.2189C52.9123 50.2259 53.2426 50.1496 53.2195 50.5772Z" fill="#13A1CC"/>
<path d="M11.6919 49.651C11.5422 49.1324 11.0432 48.7874 10.4008 48.7839C9.26996 48.7776 8.13909 48.7818 7.00823 48.7818V48.7706C6.07611 48.7706 5.14329 48.7671 4.21116 48.772C3.89696 48.7734 3.52257 48.695 3.28884 48.8385C3.0922 48.9589 3.05861 49.3465 2.95224 49.6167C2.94804 49.6272 2.94174 49.637 2.93754 49.6482C2.21676 51.4389 1.50227 53.2325 0.768887 55.0177C0.647124 55.3144 0.722001 55.3641 1.00402 55.3634C3.13698 55.3571 5.26995 55.3473 7.40291 55.3669C8.18598 55.3738 8.87947 55.0918 9.4687 54.6657C10.2966 54.0666 10.68 53.1737 10.6877 52.138C10.6884 52.0554 10.6695 51.9876 10.7591 51.8987C11.2602 51.4018 11.4813 50.7468 11.7045 50.0988C11.7542 49.9554 11.7353 49.8007 11.6919 49.651ZM9.37563 51.0631C9.18318 51.2325 8.95435 51.3025 8.70103 51.3032C8.06002 51.306 7.41901 51.3214 6.7787 51.3067C6.47219 51.3004 6.21187 51.3612 5.98724 51.5768C5.58975 51.9568 5.18457 52.3298 4.78289 52.7048C4.80529 52.7377 4.82768 52.7706 4.85007 52.8028C5.7815 52.8028 6.71292 52.8028 7.64434 52.8035C7.76121 52.8035 7.87877 52.7944 7.99354 52.8091C8.22587 52.8385 8.51628 52.7909 8.55617 53.1387C8.58626 53.4011 8.31824 53.7643 8.04462 53.8091C7.7934 53.8504 7.53447 53.8665 7.27905 53.8679C6.02082 53.8742 4.7619 53.8672 3.50297 53.8763C3.22796 53.8784 3.15728 53.8392 3.28394 53.5481C3.72831 52.525 4.14398 51.4893 4.56176 50.4543C4.63104 50.2836 4.71221 50.1947 4.91445 50.1968C6.26645 50.208 7.61775 50.2073 8.96975 50.2115C9.01663 50.2115 9.06492 50.2073 9.10901 50.2199C9.27486 50.2661 9.51908 50.1758 9.57227 50.4284C9.62125 50.6642 9.56947 50.8917 9.37563 51.0631Z" fill="#13A1CC"/>
<path d="M28.0598 48.7881C29.2019 48.7881 30.3439 48.7923 31.486 48.7846C31.7253 48.7832 31.7694 48.8539 31.67 49.0652C31.542 49.3388 31.409 49.6145 31.3236 49.9029C31.2481 50.1583 31.1004 50.2031 30.8639 50.2024C28.8947 50.1968 26.9247 50.2024 24.9548 50.2024C24.7078 50.2024 24.4678 50.2192 24.2494 50.3598C24.1585 50.4186 24.0871 50.4844 24.029 50.5747C23.7393 51.0239 23.8569 51.2996 24.388 51.308C25.6693 51.3283 26.9513 51.3178 28.2334 51.3192C28.5951 51.3192 28.9555 51.3227 29.3103 51.4074C30.0976 51.5956 30.4013 52.1933 30.0976 52.9448C29.845 53.5698 29.6294 54.2066 29.0577 54.646C28.3726 55.173 27.6014 55.3612 26.7568 55.3584C25.0437 55.3528 23.3306 55.3598 21.6175 55.3605C21.2095 55.3605 20.8023 55.3577 20.3943 55.3584C20.3236 55.3584 20.2431 55.3696 20.2158 55.2878C20.1913 55.2143 20.2431 55.1457 20.2977 55.1107C20.7792 54.8014 21.176 54.392 21.6035 54.019C21.7736 53.8707 21.9933 53.8854 22.2039 53.8854C23.719 53.8854 25.234 53.8854 26.7491 53.8861C27.0542 53.8861 27.3509 53.8574 27.6399 53.7461C27.8296 53.6733 27.9499 53.5474 28.0297 53.3717C28.176 53.0491 28.0885 52.8749 27.7407 52.849C26.3915 52.7468 25.0402 52.8273 23.6896 52.8035C23.2578 52.7958 22.8338 52.8014 22.4237 52.6194C21.8582 52.3682 21.614 51.8616 21.8205 51.2828C21.8946 51.075 22.001 50.877 22.0591 50.6649C22.4027 49.4032 23.7897 48.7979 24.7365 48.7888C25.8436 48.7783 26.9506 48.786 28.0577 48.786C28.0577 48.7867 28.0577 48.7874 28.0577 48.7881H28.0598Z" fill="#13A1CC"/>
<path d="M64.8968 48.9121C64.549 48.861 64.2131 48.749 63.8506 48.7581C63.0584 48.777 62.2656 48.7637 61.4727 48.7637V48.7749C60.5861 48.7749 59.6952 48.7154 58.8156 48.7903C57.7435 48.882 56.8303 49.341 56.3712 50.3872C55.8772 51.5139 55.4321 52.6623 54.9758 53.8057C54.7855 54.2844 54.9485 54.8414 55.3474 55.0751C55.6399 55.2466 55.9626 55.3613 56.3082 55.3613C57.964 55.362 59.6211 55.4033 61.2747 55.339C62.7085 55.2837 63.6966 54.6895 64.1802 53.304C64.4482 52.5363 64.8016 51.7994 65.1053 51.0436C65.2607 50.6573 65.465 50.283 65.4685 49.8491C65.4706 49.488 65.1767 48.9527 64.8968 48.9121ZM63.1515 51.0296C62.8793 51.7707 62.5798 52.5041 62.2656 53.2284C62.0612 53.7 61.6421 53.8645 61.155 53.8694C60.5602 53.8757 59.9661 53.8708 59.3712 53.8708V53.8722C58.8002 53.8722 58.2292 53.8645 57.6581 53.875C57.2495 53.8827 57.0633 53.6853 57.1543 53.2718C57.2551 52.8148 57.4776 52.4005 57.6455 51.9667C57.7673 51.6525 57.9157 51.3487 58.0437 51.0366C58.2565 50.5209 58.64 50.2354 59.1956 50.2263C60.3264 50.2067 61.4573 50.1962 62.5882 50.2053C63.1949 50.2102 63.3635 50.4537 63.1515 51.0296Z" fill="#13A1CC"/>
<path d="M20.6325 51.3278C20.1601 51.8387 19.6835 52.2361 19.2196 52.6476C19.0334 52.8128 18.8151 52.81 18.5737 52.8079C17.3966 52.796 16.2203 52.8142 15.0432 52.8184C14.6821 52.8198 14.321 52.8051 13.9599 52.803C13.6758 52.8016 13.4372 53.1109 13.4463 53.458C13.454 53.7505 13.6079 53.8639 13.9501 53.8653C15.6982 53.8715 17.4463 53.882 19.1944 53.8953C19.3042 53.896 19.4281 53.8737 19.5478 53.9982C19.06 54.4293 18.5786 54.8597 18.0901 55.2816C17.9788 55.3782 17.827 55.3628 17.687 55.3628C16.0341 55.3628 14.3805 55.3628 12.7276 55.3635C12.4176 55.3635 12.1258 55.2781 11.8543 55.1452C11.3294 54.8897 11.1335 54.3726 11.3644 53.7827C11.813 52.635 12.279 51.4944 12.7514 50.3565C13.186 49.3103 14.1048 48.8561 15.1181 48.8121C17.1888 48.7232 19.2658 48.7876 21.3399 48.7764C21.6471 48.775 21.6751 48.8659 21.5786 49.1298C21.1909 50.1934 21.1972 50.1955 20.0621 50.1962C18.722 50.1969 17.3819 50.1997 16.0418 50.2004C14.7794 50.2004 14.2231 50.7043 14.0698 51.9856C14.0908 51.9835 14.1223 51.9891 14.1307 51.9779C14.7808 51.148 15.6912 51.2956 16.5653 51.3502C16.7766 51.3635 16.9767 51.3698 17.1832 51.332C17.2511 51.3194 17.3224 51.3278 17.3924 51.3278C18.4498 51.3278 19.5072 51.3278 20.6332 51.3278H20.6325Z" fill="#13A1CC"/>
<path d="M67.5382 55.2643C67.9497 54.8857 68.3535 54.5127 68.7586 54.1418C68.9644 53.9536 69.2002 53.8647 69.4878 53.871C70.1512 53.8864 70.8174 53.913 71.478 53.8682C71.8503 53.843 72.1694 53.6037 72.3262 53.2468C72.6439 52.5239 72.9532 51.7954 73.2303 51.0564C73.4521 50.4651 73.2681 50.2118 72.6502 50.2076C71.357 50.1992 70.063 50.2076 68.7698 50.1978C68.5445 50.1964 68.4451 50.2853 68.3639 50.4861C67.7376 52.0383 67.0966 53.5841 66.471 55.1362C66.4094 55.2888 66.3569 55.3385 66.182 55.3476C65.7152 55.3707 65.2499 55.3315 64.7852 55.3462C64.5151 55.3553 64.4703 55.2692 64.569 55.0285C65.1162 53.6954 65.6669 52.363 66.1911 51.0208C66.4654 50.3189 66.8272 49.6492 67.005 48.9116C67.0546 48.7044 67.2037 48.7926 67.3052 48.7912C68.4584 48.7779 69.6124 48.7688 70.7663 48.7702C72.0295 48.7716 73.2933 48.78 74.5564 48.7947C75.1827 48.8017 75.7153 49.5834 75.492 50.1978C75.2268 50.9291 74.921 51.6464 74.6306 52.3686C74.4486 52.8213 74.2716 53.2762 74.0756 53.7227C73.5921 54.8255 72.6474 55.2692 71.5361 55.3308C70.2814 55.4001 69.0204 55.3532 67.7621 55.3553C67.6949 55.3553 67.6201 55.363 67.5368 55.2643H67.5382Z" fill="#13A1CC"/>
<path d="M86.1512 48.8077C85.4892 50.4543 84.8433 52.0827 84.1792 53.7048C83.893 54.4039 83.3255 54.8203 82.6446 55.0939C82.2534 55.2514 81.8384 55.3564 81.422 55.3592C79.266 55.3711 77.1099 55.3592 74.9539 55.3543C74.851 55.3543 74.7425 55.3655 74.6292 55.2759C74.8594 54.9687 75.2142 54.786 75.4458 54.4977C75.8958 53.9365 76.4633 53.8413 77.1365 53.8602C78.4871 53.898 79.8405 53.8742 81.1925 53.8686C81.436 53.8672 81.681 53.8399 81.9231 53.807C82.1974 53.7699 82.6082 53.1464 82.5347 52.898C82.4885 52.7419 82.359 52.814 82.2702 52.814C80.7432 52.8084 79.2163 52.8063 77.6893 52.8084C77.3331 52.8084 76.9937 52.7454 76.6746 52.5894C76.203 52.3584 75.9713 51.919 76.1393 51.4368C76.4367 50.5824 76.7782 49.744 77.1001 48.898C77.1365 48.8028 77.2184 48.793 77.2968 48.7839C77.8314 48.723 78.366 48.7279 78.9007 48.7797C79.1533 48.8042 79.0224 48.9554 78.9854 49.0519C78.7719 49.6048 78.5424 50.1513 78.3296 50.7041C78.1771 51.1009 78.2961 51.2843 78.7278 51.2997C79.1701 51.3158 79.6138 51.3046 80.056 51.3053C80.7789 51.3067 81.5018 51.3165 82.224 51.3032C82.4752 51.2983 82.7054 51.4228 82.9756 51.3438C83.196 51.2794 83.294 51.1737 83.3716 50.9771C83.6355 50.3067 83.9224 49.6461 84.1827 48.9743C84.2394 48.8273 84.3045 48.7839 84.4535 48.7811C85.0127 48.7706 85.5711 48.7419 86.1519 48.807L86.1512 48.8077Z" fill="#13A1CC"/>
<path d="M33.4142 55.3657C34.1224 53.6071 34.7998 51.9248 35.4961 50.1949C34.5311 50.1949 33.6227 50.1963 32.7151 50.1942C32.319 50.1935 32.3162 50.1858 32.4674 49.838C32.4863 49.7953 32.5087 49.754 32.5262 49.7114C32.6479 49.4119 32.6892 48.9885 32.911 48.8457C33.1539 48.6897 33.5639 48.7841 33.9005 48.7834C36.2085 48.782 38.5164 48.7904 40.8236 48.7806C41.1315 48.7792 41.1728 48.8807 41.0272 49.1053C40.8733 49.3419 40.7928 49.6106 40.7116 49.8681C40.622 50.1536 40.4674 50.2082 40.2036 50.2047C39.3764 50.1935 38.5486 50.2047 37.7207 50.2033C37.5213 50.2033 37.3708 50.2334 37.284 50.4545C36.7781 51.7422 36.2595 53.0242 35.7452 54.3083C35.7368 54.33 35.7298 54.3524 35.7207 54.3741C35.5912 54.6953 35.5793 55.1487 35.305 55.3034C35.0356 55.4553 34.6241 55.358 34.2749 55.365C34.0083 55.3699 33.741 55.3657 33.4142 55.3657Z" fill="#13A1CC"/>
<path d="M71.2842 59.6302C71.3066 59.2663 71.4374 59.1047 71.8069 59.139C72.2345 59.1789 72.6677 59.1551 73.0987 59.1565C73.1911 59.1565 73.2898 59.1649 73.3752 59.1376C73.4885 59.1012 73.6677 59.0872 73.639 58.9192C73.6159 58.7828 73.4612 58.8017 73.3458 58.801C72.9385 58.8003 72.5305 58.8052 72.1232 58.7982C71.7586 58.7919 71.6712 58.6603 71.7705 58.3174C71.8972 57.8759 72.1953 57.6036 72.639 57.5812C73.3311 57.5463 74.0267 57.5721 74.7684 57.5721C74.5291 57.8934 74.3031 58.1145 73.8972 58.0837C73.5039 58.0536 73.1064 58.0669 72.7111 58.0697C72.5746 58.0711 72.3885 58.0683 72.3934 58.2558C72.3983 58.4434 72.5844 58.379 72.6992 58.3804C73.0952 58.386 73.4906 58.3748 73.8867 58.379C74.259 58.3832 74.4136 58.6155 74.2681 58.9556C74.0868 59.379 73.7635 59.6197 73.2989 59.6274C72.6355 59.6379 71.9721 59.6302 71.2849 59.6302H71.2842Z" fill="#D5FF5F"/>
<path d="M63.5435 58.416H65.4035C65.2363 58.6882 65.039 58.8436 64.7031 58.8149C64.3679 58.7862 64.0285 58.7988 63.6912 58.8009C63.5253 58.8023 63.2797 58.7554 63.2783 58.9891C63.2776 59.2096 63.5169 59.1543 63.6716 59.155C64.0907 59.1564 64.5092 59.148 64.9284 59.1487C64.9865 59.1487 65.0802 59.0857 65.0991 59.1935C65.1096 59.2543 65.1061 59.3383 65.032 59.3768C64.85 59.4706 64.7024 59.6329 64.4735 59.6301C63.9732 59.6231 63.4728 59.6287 62.9725 59.6182C62.6702 59.6119 62.5148 59.3985 62.6198 59.12C62.7541 58.7624 62.9025 58.409 63.0704 58.0654C63.2636 57.6693 63.6366 57.5734 64.0362 57.5636C64.5015 57.5524 64.9676 57.5517 65.4329 57.5636C65.5519 57.5664 65.7758 57.4734 65.7709 57.6707C65.7667 57.8422 65.68 58.0703 65.4189 58.0724C65.0236 58.0766 64.6275 58.0724 64.2321 58.0738C63.9466 58.0745 63.6352 58.015 63.5022 58.3796C63.4693 58.3873 63.4364 58.3999 63.4644 58.4391C63.47 58.4468 63.5162 58.4251 63.5435 58.4167V58.416Z" fill="#D5FF5F"/>
<path d="M56.5129 59.6669C56.7236 58.9909 57.0098 58.359 57.2624 57.7138C57.317 57.5738 57.4136 57.5605 57.5374 57.5605C58.1435 57.5619 58.7495 57.5507 59.3555 57.5626C59.8146 57.5717 59.9566 57.8124 59.7929 58.2351C59.6949 58.487 59.5927 58.7299 59.3842 58.9132C59.2267 59.0511 59.2218 59.2365 59.2295 59.4269C59.2337 59.5276 59.2547 59.6676 59.0868 59.627C58.9104 59.5843 58.5661 59.7341 58.5801 59.5108C58.6172 58.9265 58.2519 59.0679 57.9426 59.0651C57.8866 59.0651 57.8313 59.0651 57.7411 59.0651C57.9391 58.6452 58.2582 58.5304 58.6592 58.5801C58.8901 58.6088 59.0686 58.5577 59.1749 58.3275C59.2512 58.1616 59.2547 58.07 59.0294 58.0742C58.6452 58.0818 58.2596 58.084 57.8761 58.0672C57.7124 58.0602 57.6823 58.1637 57.6382 58.2673C57.4898 58.6193 57.3114 58.9643 57.2092 59.3296C57.0987 59.725 56.8607 59.7481 56.5136 59.6676L56.5129 59.6669Z" fill="#D5FF5F"/>
<path d="M83.9545 59.6272C84.1841 59.3984 84.3051 59.1626 84.6165 59.1444C85.443 59.0961 85.59 58.952 85.7292 58.0618C85.2701 58.0618 84.8181 58.0632 84.366 58.0611C84.2205 58.0611 84.1715 58.1563 84.1267 58.2711C83.9664 58.6783 83.7747 59.0758 83.6487 59.4929C83.5585 59.7924 83.338 59.728 83.1813 59.6874C82.9552 59.6286 83.1008 59.4453 83.1477 59.3221C83.3366 58.8246 83.5396 58.3326 83.7285 57.8351C83.8076 57.6265 83.9209 57.5419 84.1624 57.5538C84.6851 57.579 85.21 57.5601 85.7334 57.5622C85.837 57.5622 85.9461 57.5608 86.0434 57.5902C86.4374 57.7084 86.5221 57.9491 86.3086 58.3081C86.1974 58.495 86.112 58.6846 86.0819 58.91C86.035 59.262 85.5403 59.6168 85.1197 59.6265C84.7593 59.6356 84.3982 59.6287 83.9538 59.6287L83.9545 59.6272Z" fill="#D5FF5F"/>
<path d="M56.267 57.5653C55.8367 57.5485 55.4042 57.5471 54.9738 57.5646C54.6106 57.5786 54.2663 57.7038 54.0879 58.0348C53.8912 58.4008 53.7443 58.7962 53.6036 59.1888C53.5211 59.4183 53.6792 59.6122 53.9241 59.6185C54.2034 59.6255 54.4826 59.6199 54.7625 59.6199V59.6318C54.9836 59.6318 55.2055 59.6227 55.4266 59.6332C55.9248 59.657 56.2384 59.4141 56.4196 58.9691C56.5155 58.7325 56.6155 58.4988 56.7093 58.2616C56.8927 57.7962 56.7653 57.5849 56.267 57.5653ZM56.0928 58.3057C55.9962 58.967 55.752 59.1538 54.9689 59.1538C54.9458 59.1538 54.9199 59.1608 54.8997 59.1524C54.6953 59.0719 54.3391 59.3281 54.2852 59.002C54.2139 58.5681 54.6771 58.0649 55.034 58.0691C55.3251 58.0726 55.6155 58.0824 55.906 58.0726C56.0921 58.0663 56.1159 58.1503 56.0928 58.3057Z" fill="#D5FF5F"/>
<path d="M48.5585 58.5569C48.6817 58.4177 48.8321 58.375 49.0204 58.3806C49.4739 58.3939 49.9287 58.3848 50.4277 58.3848C50.2716 58.6346 50.1065 58.8082 49.8077 58.8061C49.3997 58.8033 48.9924 58.8047 48.5844 58.804C48.4508 58.804 48.301 58.811 48.3066 58.9859C48.3115 59.1588 48.4613 59.1567 48.5942 59.156C49.0134 59.1525 49.4333 59.149 49.8524 59.1518C49.9231 59.1518 50.0246 59.0818 50.0617 59.1979C50.0904 59.2882 50.0141 59.3442 49.9574 59.4023C49.807 59.5562 49.6502 59.657 49.4102 59.6423C48.9805 59.6157 48.5487 59.6332 48.1177 59.6255C47.6831 59.6178 47.5613 59.4408 47.7125 59.0279C47.816 58.7452 47.9336 58.4681 48.0463 58.1889C48.2198 57.7578 48.562 57.5744 49.0043 57.5646C49.5053 57.5534 50.0064 57.5576 50.5074 57.5625C50.5928 57.5632 50.7104 57.5066 50.7608 57.6122C50.8175 57.7298 50.744 57.8369 50.6761 57.9334C50.5942 58.0503 50.4718 58.0783 50.3381 58.0783C49.9189 58.0769 49.4969 58.1063 49.0827 58.0636C48.7104 58.0251 48.5774 58.2021 48.5214 58.5143C48.4836 58.5233 48.4634 58.545 48.4843 58.5814C48.4878 58.587 48.5333 58.5674 48.5599 58.559L48.5585 58.5569Z" fill="#D5FF5F"/>
<path d="M44.3883 59.5983C44.6465 58.9643 44.9069 58.3352 45.1581 57.7026C45.212 57.5668 45.2924 57.5507 45.4247 57.5528C46.0069 57.5633 46.5899 57.5542 47.1721 57.5626C47.706 57.5696 47.86 57.8104 47.6535 58.2897C47.5437 58.5451 47.4429 58.8048 47.333 59.0602C47.1749 59.4304 46.8831 59.6158 46.4891 59.6291C46.1308 59.641 45.7711 59.6319 45.3722 59.6319C45.5556 59.3268 45.7578 59.1232 46.114 59.1281C46.7368 59.1365 46.7361 59.133 46.9698 58.5577C47.03 58.4101 47.1056 58.2673 47.1049 58.0539C46.6563 58.0539 46.2148 58.0588 45.7739 58.0511C45.6066 58.0483 45.5577 58.1554 45.5073 58.2764C45.3736 58.5969 45.2106 58.909 45.1147 59.2407C45.002 59.6298 44.7697 59.7075 44.3883 59.599V59.5983Z" fill="#D5FF5F"/>
<path d="M69.2347 58.8001C68.6553 58.8001 68.1108 58.8085 67.5671 58.7966C67.2508 58.7896 67.1563 58.6412 67.2578 58.3368C67.3201 58.15 67.411 57.9736 67.4817 57.7896C67.5573 57.5922 67.707 57.5509 67.9002 57.5509C68.101 57.5509 68.1311 57.6069 68.0639 57.8001C67.8638 58.376 67.8736 58.3795 68.4803 58.3809C68.5153 58.3809 68.551 58.3767 68.5853 58.3823C69.1164 58.4642 69.5356 58.3795 69.663 57.749C69.7224 57.453 69.994 57.5642 70.1871 57.5663C70.2942 57.5677 70.2564 57.665 70.2361 57.7273C70.0695 58.2479 69.8764 58.7609 69.5972 59.2283C69.4285 59.5111 69.122 59.6272 68.7868 59.6279C68.1346 59.6293 67.4831 59.6279 66.7987 59.6279C67.0198 59.3011 67.2599 59.0905 67.6769 59.1339C68.0121 59.1689 68.3522 59.1507 68.6902 59.1556C68.931 59.1591 69.1248 59.0835 69.2354 58.7987L69.2347 58.8001Z" fill="#D5FF5F"/>
<path d="M50.3624 59.5814C50.6116 58.9712 50.8698 58.3414 51.1245 57.7108C51.1763 57.5828 51.2631 57.5527 51.396 57.5548C51.9789 57.5632 52.5619 57.5485 53.1441 57.5646C53.692 57.58 53.8208 57.7934 53.6186 58.2994C53.3883 58.876 53.1287 59.0558 52.5094 59.0635C52.2183 59.067 51.9279 59.0635 51.5794 59.0635C51.7333 58.7759 51.9083 58.5891 52.2407 58.5856C52.4359 58.5835 52.6354 58.6353 52.8257 58.5373C52.9775 58.4589 53.0664 58.3246 53.0447 58.1727C53.0216 58.0125 52.8551 58.0824 52.7508 58.0775C52.4135 58.0628 52.0748 58.0775 51.7396 58.0481C51.5759 58.0341 51.5339 58.1202 51.4891 58.2273C51.3589 58.5359 51.1987 58.8375 51.1147 59.1587C51.0083 59.566 50.8194 59.7612 50.3638 59.58L50.3624 59.5814Z" fill="#D5FF5F"/>
<path d="M77.0553 59.4689C76.9972 58.9028 76.9392 58.3374 76.8741 57.7719C76.8664 57.7005 76.8986 57.5704 76.7922 57.5711C76.5074 57.5732 76.175 57.4444 75.9482 57.6579C75.3226 58.2457 74.7607 58.8944 74.1421 59.632C74.4178 59.632 74.5886 59.6376 74.7586 59.6313C75.2345 59.6131 75.746 59.7488 76.1169 59.287C76.1911 59.1946 76.2835 59.2562 76.3121 59.3751C76.4045 59.753 76.7089 59.6117 76.9462 59.632C77.0763 59.6425 77.063 59.5473 77.0553 59.4689ZM75.4871 59.2142C75.2695 59.2086 75.2695 59.1239 75.3807 58.9931C75.6403 58.6866 75.9091 58.3877 76.2331 58.0203C76.2499 58.1995 76.2583 58.2898 76.2667 58.38C76.3464 59.2415 76.3464 59.2366 75.4871 59.2142Z" fill="#D5FF5F"/>
<path d="M81.2617 59.6235C81.0056 59.6235 80.7494 59.6235 80.4933 59.6235C80.2106 59.6228 80.044 59.4388 80.1378 59.1757C80.317 58.6753 80.5297 58.1876 80.7291 57.6949C80.8285 57.4493 81.0601 57.5326 81.2057 57.5627C81.3569 57.5941 81.2337 57.7614 81.2008 57.8545C81.0895 58.1708 80.9685 58.4843 80.8334 58.7915C80.7249 59.0385 80.7508 59.161 81.0566 59.1568C82.4954 59.1365 82.1847 59.3436 82.7459 57.9846C82.8481 57.7376 82.923 57.5088 83.2687 57.5522C83.4268 57.5717 83.4849 57.6088 83.4226 57.76C83.2267 58.2296 83.0448 58.7054 82.8257 59.1638C82.6809 59.4661 82.4121 59.6256 82.065 59.6263C81.797 59.6263 81.5297 59.6263 81.2617 59.6263C81.2617 59.6256 81.2617 59.6242 81.2617 59.6235Z" fill="#D5FF5F"/>
<path d="M60.5632 59.5983C60.6878 59.1777 60.869 58.7914 61.0461 58.403C61.1475 58.1805 61.1678 58.0322 60.8382 58.0713C60.6444 58.0944 60.445 58.0755 60.2462 58.0755C60.2994 57.5864 60.3302 57.5584 60.7648 57.5591C61.3701 57.5598 61.9754 57.5535 62.5807 57.5626C62.6801 57.564 62.8683 57.4576 62.8627 57.69C62.8585 57.8684 62.8173 58.0503 62.5933 58.072C62.4205 58.0888 62.2385 58.1049 62.0713 58.0699C61.827 58.0196 61.7193 58.1077 61.6465 58.331C61.5534 58.6165 61.3981 58.8838 61.3253 59.1728C61.2231 59.5794 60.9915 59.7082 60.5639 59.5976L60.5632 59.5983Z" fill="#D5FF5F"/>
<path d="M78.5473 59.6272C78.3268 59.6272 78.1057 59.6349 77.8853 59.6251C77.5808 59.6125 77.4171 59.4243 77.5172 59.1437C77.6949 58.644 77.909 58.157 78.1204 57.6692C78.2247 57.4292 78.4584 57.5453 78.6046 57.574C78.7726 57.6062 78.6305 57.7686 78.599 57.8546C78.4738 58.2017 78.3247 58.5397 78.189 58.8826C78.1148 59.0702 78.1659 59.164 78.387 59.1535C78.7698 59.136 79.1526 59.1325 79.5354 59.1276C79.6095 59.1269 79.7222 59.0702 79.7467 59.1731C79.7607 59.2332 79.6998 59.3284 79.648 59.3844C79.5039 59.5397 79.345 59.6608 79.1043 59.6293C78.9216 59.6055 78.7334 59.6244 78.5473 59.6244V59.6258V59.6272Z" fill="#D5FF5F"/>
<path d="M24.9404 26.9484C24.8991 26.94 24.8844 26.9652 24.8872 26.9988C24.8879 27.0079 24.9243 27.0261 24.932 27.0212C24.9606 27.0023 24.9753 26.9757 24.932 26.9526C24.9313 26.9526 24.9404 26.9491 24.9404 26.9491V26.9484Z" fill="#1A1A1A"/>
<path d="M63.5436 58.4158C63.5163 58.4242 63.4701 58.4459 63.4645 58.4382C63.4365 58.3997 63.4694 58.3864 63.5023 58.3787C63.5177 58.3885 63.5317 58.4011 63.5436 58.4158Z" fill="black"/>
<path d="M48.5592 58.5572C48.5334 58.5656 48.4872 58.5852 48.4837 58.5796C48.4627 58.5439 48.4837 58.5215 48.5208 58.5125C48.5348 58.5264 48.5481 58.5411 48.5592 58.5572Z" fill="black"/>
</svg>
