<svg width="16" height="18" viewBox="0 0 16 18" fill="none" xmlns="http://www.w3.org/2000/svg">
<path d="M10.48 17.923V13.385H11.48V12.385C11.48 11.8857 11.6503 11.4657 11.991 11.125C12.331 10.785 12.7507 10.615 13.25 10.615C13.7493 10.615 14.169 10.785 14.509 11.125C14.849 11.4657 15.019 11.8857 15.019 12.385V13.385H16V17.923H10.48ZM12.25 13.385H14.25V12.385C14.25 12.1017 14.154 11.864 13.962 11.672C13.77 11.48 13.5327 11.3843 13.25 11.385C12.9667 11.385 12.7293 11.4807 12.538 11.672C12.3467 11.8633 12.2507 12.101 12.25 12.385V13.385ZM7 17.885C4.99133 17.2883 3.32233 16.0713 1.993 14.234C0.664333 12.396 0 10.3257 0 8.023V2.615L7 0L14 2.615V8.023C14 8.09367 13.999 8.16433 13.997 8.235C13.995 8.305 13.992 8.37533 13.988 8.446C13.864 8.426 13.7417 8.41067 13.621 8.4C13.501 8.39 13.3773 8.385 13.25 8.385C11.854 8.39767 10.6717 8.88733 9.703 9.854C8.73433 10.8207 8.25 11.9973 8.25 13.384V17.404C8.052 17.5107 7.84867 17.604 7.64 17.684C7.43133 17.764 7.218 17.8317 7 17.885Z" fill="#D5FF5F"/>
</svg>
